# xmcd CD database file
# Copyright (C) 1995-1998 Ti Kan
#
# Track frame offsets:
#	150
#	11991
#	26878
#	41804
#	53315
#	66486
#	76436
#	90852
#	106337
#	127293
#	140164
#	152554
#	166051
#	182444
#	198074
#	210180
#
# Disc length: 2960 seconds
#
# Revision: 1
# Processed by: cddbd v1.4b41PL1 Copyright (c) Steve Scherf et al.
# Submitted via: CDex 1.30Release
#
DISCID=d00b8e10
DTITLE=Dr. Hook - The Complete Collection (3 of 4)
DYEAR=2000
DGENRE=Country
TTITLE0=Sweetest Of All
TTITLE1=I Don't Wanna Be Alone Tonight
TTITLE2=Storm Never Last
TTITLE3=All The Time In The World
TTITLE4=When You're In Love With A Beautiful Woman
TTITLE5=You Make My Pants Wants To Get Up And Dance
TTITLE6=I Gave Her Comfort
TTITLE7=Knowing She's There
TTITLE8=Clyde
TTITLE9=Oh Jessie
TTITLE10=I Couldn't Believe
TTITLE11=Better Love Next Time
TTITLE12=In Over My Head
TTITLE13=Sexy Eyes
TTITLE14=I Don't Feel Much Like Smilin'
TTITLE15=Mountain Mary
EXTD=YEAR: 2000 ID3G:   2
EXTT0=
EXTT1=
EXTT2=
EXTT3=
EXTT4=
EXTT5=
EXTT6=
EXTT7=
EXTT8=
EXTT9=
EXTT10=
EXTT11=
EXTT12=
EXTT13=
EXTT14=
EXTT15=
PLAYORDER=
